<svg xmlns="http://www.w3.org/2000/svg" width="254.627" height="67.384" viewBox="0 0 254.627 67.384">
  <g id="Group_2994" data-name="Group 2994" transform="translate(-1224.77 -328)">
    <circle id="Ellipse_196" data-name="Ellipse 196" cx="7" cy="7" r="7" transform="translate(1295.381 363)" fill="#5c54ff"/>
    <circle id="Ellipse_199" data-name="Ellipse 199" cx="4.5" cy="4.5" r="4.5" transform="translate(1323.758 328)" fill="#e8e8e8"/>
    <circle id="Ellipse_200" data-name="Ellipse 200" cx="4.5" cy="4.5" r="4.5" transform="translate(1364.272 357)" fill="#5c54ff"/>
    <circle id="Ellipse_197" data-name="Ellipse 197" cx="2.5" cy="2.5" r="2.5" transform="translate(1336.754 341)" fill="#fc2249"/>
    <g id="Group_2988" data-name="Group 2988" transform="translate(1400.631 335.822)">
      <circle id="Ellipse_198" data-name="Ellipse 198" cx="9" cy="9" r="9" transform="translate(0 8.178)" fill="#e8e8e8"/>
      <path id="Subtraction_51" data-name="Subtraction 51" d="M19.855,15.177H0L9.927,0l9.926,15.175Z" transform="translate(9.323)" fill="#fc2249"/>
    </g>
    <path id="Path_1052" data-name="Path 1052" d="M6339.2,16616.559s1.576,2.6.7,7.063.868,8.4,4.792,9.176,6.689,2.535,6.128,8.277-.446,9.455,3.732,10.521,7.593,1.559,7.04,8.521.546,7.883.546,7.883" transform="translate(-5114 -16273)" fill="none" stroke="#e8e8e8" stroke-width="1"/>
    <path id="Path_1053" data-name="Path 1053" d="M6757.865,16611.742a6.054,6.054,0,0,1,4.789-3.031c3.445-.311,5.2-4.859,4.75-8.844s.455-8.3,4.814-9.393,4.479-2.953,4.479-2.953" transform="translate(-5297.948 -16218.047)" fill="none" stroke="#ffc683" stroke-width="1.3"/>
  </g>
</svg>
